<?xml version="1.0" standalone="no"?>
<!DOCTYPE svg PUBLIC "-//W3C//DTD SVG 20010904//EN"
 "http://www.w3.org/TR/2001/REC-SVG-20010904/DTD/svg10.dtd">
<svg version="1.0" xmlns="http://www.w3.org/2000/svg"
 width="512.000000pt" height="512.000000pt" viewBox="0 0 512.000000 512.000000"
 preserveAspectRatio="xMidYMid meet">
<metadata>
Created by potrace 1.14, written by Peter Selinger 2001-2017
</metadata>
<g transform="translate(0.000000,512.000000) scale(0.100000,-0.100000)"
fill="#000000" stroke="none">
<path d="M2734 5016 c-23 -7 -61 -27 -85 -44 -24 -17 -598 -585 -1275 -1264
-993 -994 -1236 -1243 -1255 -1283 -20 -42 -24 -66 -24 -145 0 -160 -7 -150
451 -605 l393 -390 3 -470 3 -470 26 -55 c36 -77 77 -121 151 -161 l63 -34
1800 0 1800 0 56 28 c66 32 132 99 162 165 l22 47 0 1160 0 1160 -34 63 c-40
74 -85 116 -161 150 -46 22 -74 27 -168 30 l-112 5 41 44 c66 72 94 143 94
238 0 154 43 103 -862 1006 -759 758 -801 798 -856 818 -66 24 -168 27 -233 7z
m-800 -2565 l26 -24 0 -206 c-1 -146 -4 -211 -13 -222 -28 -36 -51 -39 -332
-39 l-277 0 -29 29 -29 29 0 200 c0 185 1 201 20 225 11 14 30 28 43 30 12 3
144 4 294 3 l271 -1 26 -24z m-620 -751 c42 -15 56 -58 56 -165 0 -110 -13
-147 -60 -163 -41 -15 -86 2 -105 39 -19 36 -20 213 -2 249 12 24 50 50 74 50
6 0 23 -4 37 -10z m371 -20 c17 -17 21 -37 23 -126 4 -120 -6 -157 -49 -180
-35 -18 -70 -10 -101 23 -20 21 -23 37 -27 116 -4 109 9 161 47 182 33 18 80
12 107 -15z m336 1 c29 -29 29 -31 29 -141 0 -61 -5 -120 -10 -131 -15 -27
-67 -51 -93 -43 -12 3 -32 16 -44 27 -21 19 -23 29 -23 142 0 125 4 141 45
163 34 19 65 13 96 -17z m340 0 c29 -29 29 -31 29 -145 0 -106 -2 -117 -24
-142 -31 -37 -84 -38 -121 -4 -24 23 -25 28 -25 146 l0 122 31 26 c40 34 74
33 110 -3z m338 3 l31 -26 0 -118 c0 -111 -2 -121 -24 -146 -18 -21 -32 -28
-61 -28 -29 0 -43 7 -61 28 -22 25 -24 36 -24 142 0 114 0 116 29 145 36 36
70 37 110 3z m671 11 c39 -20 53 -76 48 -187 -4 -74 -8 -91 -27 -112 -31 -33
-65 -40 -102 -21 -41 22 -49 49 -49 171 0 103 1 106 29 135 33 33 58 36 101
14z m334 5 c41 -15 56 -58 56 -160 0 -55 -5 -104 -14 -124 -28 -67 -124 -68
-154 -1 -16 35 -15 213 1 245 12 24 50 50 74 50 6 0 23 -4 37 -10z m371 -20
c17 -17 21 -37 23 -126 4 -120 -6 -157 -50 -180 -24 -12 -36 -13 -65 -3 -48
16 -63 55 -63 169 0 99 15 144 53 160 31 13 78 3 102 -20z m336 1 c28 -29 29
-32 29 -135 0 -122 -8 -149 -49 -171 -37 -19 -71 -12 -102 21 -19 21 -23 38
-27 112 -5 109 9 166 46 186 41 23 71 19 103 -13z"/>
</g>
</svg>
